<?xml version="1.0" encoding="UTF-8"?>
<svg id="Layer_2" data-name="Layer 2" xmlns="http://www.w3.org/2000/svg" viewBox="0 0 256.71 243.47">
  <g id="Layer_1-2" data-name="Layer 1">
    <g>
      <path d="M195.51,222.51c-1.11,10.96-9.47,19.24-20.21,20.91h-80.97c1.93-2.24,4.31-3.96,6.31-6.12,1.21-1.31,6.74-8.94,7.33-9.12l65.22-.07c2.79.2,7.07-3.68,7.07-6.31v-86.74c2.26.47,4.53.85,6.81,1.15,1.99.26,4.35.54,6.93.54.55,0,1.1-.01,1.65-.04,0,28.61-.31,57.24-.15,85.8Z"/>
      <path d="M141.7,119.45H15.28v15.88c-5.54,4.08-10.69,8.44-15.28,13.59v-65.8c1.1-5.87,3.59-11.06,8.21-14.93,2.67-2.25,8.78-5.35,12.23-5.35h11.64v-15.3h15.28v15.3h50.04c-.01,5.2,1.81,10.33,4.47,15.31h-54.51v15.3h-15.28v-15.3h-10.5c-2.26,0-6.3,4.03-6.3,6.31v19.69h106.75c5.98,5.76,12.59,10.9,19.66,15.3Z"/>
      <path d="M90.89,158.3C61.22,123.34,3.93,142.11.36,187.33l-.35.61v7.65c.63,1.9.55,4.14.94,6.14,3.88,20.23,20.71,37.12,40.99,40.81,1.88.34,4.04.23,5.82.87,2.5-.14,5.17.19,7.64,0,41.54-3.14,62.78-52.98,35.51-85.11ZM81.28,212.54c-14.96,21.65-47.67,20.37-60.96-2.3-14.99-25.57,5.44-57.56,34.76-54.71,27.47,2.67,41.98,34.17,26.2,57.01Z"/>
      <rect x="151.25" y="135.53" width="15.28" height="15.3"/>
      <rect x="120.69" y="135.53" width="15.28" height="15.3"/>
      <rect x="90.14" y="135.53" width="15.28" height="15.3"/>
      <rect x="151.25" y="166.13" width="15.28" height="15.3"/>
      <rect x="120.69" y="166.13" width="15.28" height="15.3"/>
      <rect x="151.25" y="196.73" width="15.28" height="15.3"/>
      <rect x="120.69" y="196.73" width="15.28" height="15.3"/>
      <polygon points="58.08 166.61 42.8 166.61 42.8 199.89 71.07 199.89 71.07 184.59 58.08 184.59 58.08 166.61"/>
      <path d="M256.52,95.04l-53.46-71.98c-26.6-7.1-53.44-15.11-80.36-21.26-2.05-.47-6.42-1.81-9.45-1.81-1.1,0-2.03.18-2.61.63-.95.75-1.4,3.6-.87,4.75,14.21,18.82,27.87,37.86,42.03,56.62,2.69,3.56,9.41,13.58,12.31,15.81.99.76,2.07,1.3,3.24,1.72l67,16.75.47.12.1,33.08c-5.39,2.05-7.92,7.04-6.86,12.62.22,1.17,1.33,2.47,1.34,3.26,0,.42-.95,1.92-1.13,2.7-.5,2.25-3.96,14.54-3.74,15.29,1.32,4.39,7.27,0,9.74-.49,1.31-.26,3.96-.12,5.31.09,3.24.51,9.23,4.84,10.87.55.49-1.28-5.18-15.58-5.75-18.02,2.25-5.02,2.14-11.87-3.32-14.81l-.06-32.61,1.96.51.44.11c2.82.74,6.59,2.3,9.34,2.3,2.56,0,4.24-1.35,3.45-5.95ZM164.01,58.87c-1.13-1.59-2.13-2.98-2.85-3.93-7.01-9.29-14.04-18.83-20.83-28.06-2.6-3.53-5.24-7.11-7.89-10.71,14.32,3.55,28.72,7.53,42.75,11.42,6.86,1.9,13.91,3.85,20.91,5.74l37.69,50.74-1.71-.43-42.86-34.32c-1.41-1.13-3.46-.9-4.59.51s-.9,3.46.51,4.59l31.76,25.43-45.67-11.42c-1.7-1.85-5.51-7.18-7.21-9.55Z"/>
      <path d="M164.84,84.46c-6.75-2.58-14.85-16.59-19.46-22.68-5.02-6.64-10.1-13.21-15.22-19.8-.39-.51-2.08-3.65-2.7-3.66-.64.52-1.13,1.15-1.64,1.8-2.21,2.82-13.32,19.25-13.73,21.64-.85,4.99,4.57,12.96,7.45,17.12,15.5,22.37,42.29,39.14,69.47,42.8,4.22.57,8.53.9,12.25-1.49l14.88-22.21-.67-.78-50.66-12.75Z"/>
    </g>
  </g>
</svg>